Coordinates
version=1
nRows=12
nColumns=34
inDegrees=yes

Units are S.I. units (second, meters, Newtons, ...)
If the header above contains a line with 'inDegrees', this indicates whether rotational values are in degrees (yes) or radians (no).

endheader
time	pelvis_tilt	pelvis_list	pelvis_rotation	pelvis_tx	pelvis_ty	pelvis_tz	hip_flexion_r	hip_adduction_r	hip_rotation_r	knee_angle_r	ankle_angle_r	subtalar_angle_r	mtp_angle_r	hip_flexion_l	hip_adduction_l	hip_rotation_l	knee_angle_l	ankle_angle_l	subtalar_angle_l	mtp_angle_l	lumbar_extension	lumbar_bending	lumbar_rotation	arm_flex_r	arm_add_r	arm_rot_r	elbow_flex_r	pro_sup_r	arm_flex_l	arm_add_l	arm_rot_l	elbow_flex_l	pro_sup_l
      1.73333330	    -43.71606542	      8.34629299	     -5.27910098	     -6.00223126	      0.78726413	     -1.00999362	      7.89068853	      3.06310835	      4.66573668	     10.54184010	     13.53245121	    -13.74618267	      0.00000000	     74.09674202	     -2.14124339	    -10.51394902	     70.34646257	     37.46727561	    -11.25070305	      0.00000000	     -8.96721001	    -16.01010215	     27.34887894	     27.69057485	    -25.52458530	     -6.03779781	    104.49747238	    106.45066715	    -11.60592548	     -9.10407567	    337.26996008	     22.61082702	    112.49711076
      1.75000000	    -38.72842841	     10.56851026	     -4.39190410	     -5.97706634	      0.79496511	     -1.00468206	      2.80850505	      0.88331586	      1.74774175	     14.58293961	      5.91537267	    -18.29705406	      0.00000000	     65.19002158	      0.85724618	    -13.03913595	     67.45418678	     38.72304309	    -11.39778066	      0.00000000	    -15.22992352	    -22.23784843	     22.35781433	     22.45820689	    -20.84358043	     -6.77760985	     90.90442730	     99.25661057	     -6.66238654	    -12.26892131	    365.14973125	     20.94018075	     66.54388103
      1.76666670	    -34.57835032	     12.18829648	     -4.40545824	     -5.96369739	      0.79939055	     -0.99916272	      3.28941860	     -0.47216626	     -0.96529450	     28.10715697	     15.96535346	    -17.77722538	      0.00000000	     58.66278089	      3.00789826	    -14.53862614	     65.80357432	     39.93667687	    -11.83220148	      0.00000000	    -21.88018844	    -25.91388798	     15.36027360	     22.54320870	    -15.18277089	     -6.32538706	     75.50098594	     99.60785380	     -2.54059752	    -12.43925116	    366.07593551	     19.55254845	     66.46378796
      1.78333330	    -30.38063060	     12.79286891	     -4.79564956	     -5.94535522	      0.80206666	     -0.99477060	      6.57022502	     -1.29632758	     -2.84664330	     46.53647847	     37.42578648	    -11.98526038	      0.00000000	     52.68166050	      4.29801408	    -15.15300441	     65.16787106	     41.54640659	    -12.50084137	      0.00000000	    -28.78277620	    -25.88395898	      7.71968954	     23.17424167	    -10.63877903	     -4.57927534	     63.44389596	    100.21401439	      2.15841268	    -11.22344020	    365.41996604	     17.84473836	     66.14508780
      1.80000000	    -27.22300392	     10.83233569	     -4.33385579	     -5.91898651	      0.80233507	     -0.99175091	     11.88248557	      1.33717154	     -3.27870037	     64.18227941	     50.00000000	    -13.56227218	      0.00000000	     47.71172663	      3.91367412	    -13.17950656	     65.66812966	     43.46606599	    -13.40985282	      0.00000000	    -32.86302110	    -20.95081488	      0.61327655	     22.28770955	     -6.67962675	     -3.08535241	     51.82434196	    101.16762808	      6.46274720	     -9.39813324	    363.80548902	     21.04848946	     66.06934962
      1.81666670	    -26.60938375	      8.29334616	     -3.46212176	     -5.89445730	      0.79895243	     -0.98840364	     21.93767013	      5.10163047	     -3.59175129	     82.34004026	     50.00000000	    -26.13444121	      0.00000000	     45.37974983	      2.25279113	    -10.92270263	     66.60517587	     45.25148332	    -13.71315708	      0.00000000	    -32.26218788	    -15.23756926	     -3.72138724	     17.96605138	     -5.24873030	     -3.09529925	     41.48382702	    102.01117132	     11.22984079	     -7.81632894	    362.89193019	     28.95420322	     67.03022435
      1.83333330	    -25.06360334	      7.68538340	     -1.85974617	     -5.87108906	      0.80009596	     -0.98429828	     30.80069966	      5.15221570	     -5.24054870	     97.69762222	     50.00000000	    -35.00000000	      0.00000000	     41.46515693	      2.69353539	     -9.37335534	     66.07906476	     46.03999271	    -13.81223064	      0.00000000	    -32.31293326	    -12.42282122	     -7.74142090	     10.68150849	     -5.76399962	     -3.73390409	     34.21807770	    102.19690668	     19.21955121	     -6.74749558	    362.99932397	     35.81489603	     67.84052649
      1.85000000	    -24.96915433	      8.47214227	     -0.77792220	     -5.84731716	      0.80423137	     -0.97807143	     39.49043620	      3.54615301	     -5.41349102	    108.37105683	     50.00000000	    -35.00000000	      0.00000000	     38.44602452	      3.62633963	     -9.17457254	     64.16941626	     46.38679081	    -12.77395654	      0.00000000	    -31.02715513	    -12.03735782	    -14.24660361	      6.80412961	     -4.67649985	     -7.07982682	     21.95512565	    102.30353573	     24.58924110	     -9.25101100	    364.33259482	     45.00975196	     72.33363124
      1.86666670	    -23.32277172	      9.44133368	     -0.12409568	     -5.82181908	      0.81219321	     -0.97284830	     44.38369639	      1.79353549	     -4.50335095	    114.59620328	     50.00000000	    -31.53682899	      0.00000000	     32.74134209	      4.79813742	     -9.01796434	     60.09820950	     46.66446305	    -10.56960223	      0.00000000	    -32.26086432	    -12.39739267	    -18.58468286	      1.25372756	     -6.19669290	     -8.88887351	     16.56698577	    106.27709893	     33.27751343	     -8.90889048	    359.29854240	     47.72442102	    112.57701589
      1.88333330	    -23.14205521	     10.15464104	      0.38470768	     -5.79914862	      0.81412652	     -0.96904080	     50.95453975	      0.69427951	     -2.59155166	    119.53705282	     50.00000000	    -23.43153552	      0.00000000	     28.23835782	      5.62440998	     -8.79049345	     55.08162328	     46.50667008	     -8.13956438	      0.00000000	    -32.27311391	    -13.02053481	    -21.90995759	     -4.13500664	     -8.71681201	     -8.75440298	     12.81548837	    106.41228274	     42.20655754	     -8.49466328	    359.46284868	     52.00294376	    112.76395299
      1.90000000	    -24.27742595	     10.18971952	      1.13538121	     -5.77972756	      0.81254721	     -0.96633553	     60.78532352	      0.63063969	      0.06651676	    124.07475938	     37.73954780	    -23.96751224	      0.00000000	     25.27666847	      5.94926401	     -7.92958908	     49.95060393	     46.01893423	     -6.26628962	      0.00000000	    -31.77510662	    -13.04628134	    -23.43711907	    -10.79125605	    -11.72368225	     -6.85332274	     11.78590464	    106.83978946	     52.77720543	     -6.63993933	    362.63646185	     55.99412897	    113.71691541
      1.91666670	    -25.53635414	      9.94817997	      1.75336118	     -5.75793264	      0.81233978	     -0.96327776	     71.85334697	      0.70969160	      3.01002158	    127.08733992	     28.33483295	    -21.83218702	      0.00000000	     22.31080330	      6.05500925	     -6.89838184	     44.40394958	     45.00508149	     -4.75793921	      0.00000000	    -31.37712861	    -12.24441515	    -23.41007744	    -19.73055072	    -13.80774370	     -5.40492347	     13.47699301	    106.96007530	     61.90037110	     -3.67605260	    366.55969184	     62.43309821	    114.62734592
